<?xml version="1.0" standalone="no"?>
<!DOCTYPE svg PUBLIC "-//W3C//DTD SVG 20010904//EN"
 "http://www.w3.org/TR/2001/REC-SVG-20010904/DTD/svg10.dtd">
<svg version="1.0" xmlns="http://www.w3.org/2000/svg"
 width="200.000000pt" height="200.000000pt" viewBox="0 0 200.000000 200.000000"
 preserveAspectRatio="xMidYMid meet">

<g transform="translate(0.000000,200.000000) scale(0.100000,-0.100000)"
fill="#000000" stroke="none">
<path d="M1450 1948 c0 -6 11 -34 25 -63 62 -126 49 -296 -31 -402 -13 -17
-24 -36 -24 -42 0 -7 37 -11 105 -11 l105 0 0 -40 0 -40 65 0 65 0 0 38 c-1
112 -51 277 -117 385 -63 105 -193 222 -193 175z"/>
<path d="M745 1362 c-249 -75 -427 -280 -489 -564 l-6 -28 74 0 74 0 -9 -37
c-5 -21 -9 -44 -9 -50 0 -10 83 -13 383 -13 l384 0 41 30 c94 68 148 182 146
310 -3 162 -94 294 -239 346 -74 26 -270 29 -350 6z m323 -232 c45 -28 76 -98
68 -153 -21 -130 -171 -172 -245 -69 -68 96 -2 242 109 242 19 0 50 -9 68 -20z"/>
</g>
</svg>
